<?xml version="1.0" encoding="UTF-8" standalone="no"?><!-- Generator: Gravit.io --><svg xmlns="http://www.w3.org/2000/svg" xmlns:xlink="http://www.w3.org/1999/xlink" style="isolation:isolate" viewBox="0 0 499.837 652.366" width="499.837pt" height="652.366pt"><defs><clipPath id="_clipPath_xvENLceGnbubA34Ng7frpJjQqjYCtKsJ"><rect width="499.837" height="652.366"/></clipPath></defs><g clip-path="url(#_clipPath_xvENLceGnbubA34Ng7frpJjQqjYCtKsJ)"><clipPath id="_clipPath_S4Va3x0fFvXc5J7LXDYTe7rUZc88yqHk"><rect x="0" y="0" width="499.837" height="652.366" transform="matrix(1,0,0,1,0,0)" fill="rgb(255,255,255)"/></clipPath><g clip-path="url(#_clipPath_S4Va3x0fFvXc5J7LXDYTe7rUZc88yqHk)"><g><path d=" M 29.321 243.747 L 470.516 243.747 C 486.699 243.747 499.837 256.885 499.837 273.068 L 499.837 499.854 C 499.837 516.036 486.699 529.175 470.516 529.175 L 29.321 529.175 C 13.138 529.175 0 516.036 0 499.854 L 0 273.068 C 0 256.885 13.138 243.747 29.321 243.747 Z " fill="rgb(177,236,122)"/><text transform="matrix(1,0,0,1,17.683,277.627)" style="font-family:'Roboto';font-weight:700;font-size:21px;font-style:normal;font-variant-ligatures:none;fill:#ffffff;stroke:none;">Aktive Lebenszeit</text><g><rect x="157.847" y="452.368" width="178.821" height="59.999" transform="matrix(1,0,0,1,0,0)" fill="rgb(240,86,59)"/><clipPath id="_clipPath_2iMhHxayUBuDVdnvKa1gU2kbHVKRY4ds"><rect x="157.847" y="452.368" width="178.821" height="59.999" transform="matrix(1,0,0,1,0,0)" fill="rgb(255,255,255)"/></clipPath><g clip-path="url(#_clipPath_2iMhHxayUBuDVdnvKa1gU2kbHVKRY4ds)"><g><text transform="matrix(1.411,0,0,1.411,173.175,492.014)" style="font-family:'Roboto';font-weight:700;font-size:20px;font-style:normal;font-variant-ligatures:none;fill:#FFFFFF;stroke:none;">Unbounded</text></g></g><rect x="157.847" y="312.37" width="178.821" height="59.999" transform="matrix(1,0,0,1,0,0)" fill="rgb(255,151,47)"/><clipPath id="_clipPath_Dm2mv7P74y363hPMfemi0vI4cQiC9kpl"><rect x="157.847" y="312.37" width="178.821" height="59.999" transform="matrix(1,0,0,1,0,0)" fill="rgb(255,255,255)"/></clipPath><g clip-path="url(#_clipPath_Dm2mv7P74y363hPMfemi0vI4cQiC9kpl)"><g><text transform="matrix(1.411,0,0,1.411,189.403,352.016)" style="font-family:'Roboto';font-weight:700;font-size:20px;font-style:normal;font-variant-ligatures:none;fill:#FFFFFF;stroke:none;">Bounded</text></g></g><rect x="157.847" y="592.367" width="178.821" height="59.999" transform="matrix(1,0,0,1,0,0)" fill="rgb(219,56,143)"/><clipPath id="_clipPath_Q6a8oEm9WLdb4Hslil4MtMAzLTccYOpK"><rect x="157.847" y="592.367" width="178.821" height="59.999" transform="matrix(1,0,0,1,0,0)" fill="rgb(255,255,255)"/></clipPath><g clip-path="url(#_clipPath_Q6a8oEm9WLdb4Hslil4MtMAzLTccYOpK)"><g><text transform="matrix(1.411,0,0,1.411,178.82,630.27)" style="font-family:'Roboto';font-weight:700;font-size:20px;font-style:normal;font-variant-ligatures:none;fill:#FFFFFF;stroke:none;">Shut down</text></g></g><path d=" M 247.258 575.95 L 247.258 513.336 L 247.258 575.95 Z  M 247.258 589.367 L 243.152 582.658 L 239.047 575.95 L 247.258 575.95 L 255.469 575.95 L 251.363 582.658 L 247.258 589.367 Z " fill-rule="evenodd" fill="rgb(0,0,0)" vector-effect="non-scaling-stroke" stroke-width="3" stroke="rgb(0,0,0)" stroke-opacity="100" stroke-linejoin="miter" stroke-linecap="square" stroke-miterlimit="3"/><path d=" M 247.258 435.951 L 247.258 373.338 L 247.258 435.951 Z  M 247.258 449.368 L 243.152 442.66 L 239.047 435.951 L 247.258 435.951 L 255.469 435.951 L 251.363 442.66 L 247.258 449.368 Z " fill-rule="evenodd" fill="rgb(0,0,0)" vector-effect="non-scaling-stroke" stroke-width="3" stroke="rgb(0,0,0)" stroke-opacity="100" stroke-linejoin="miter" stroke-linecap="square" stroke-miterlimit="3"/><path d=" M 247.258 295.953 L 247.258 233.34 L 247.258 295.953 Z  M 247.258 309.37 L 243.152 302.661 L 239.047 295.953 L 247.258 295.953 L 255.469 295.953 L 251.363 302.661 L 247.258 309.37 Z " fill-rule="evenodd" fill="rgb(0,0,0)" vector-effect="non-scaling-stroke" stroke-width="3" stroke="rgb(0,0,0)" stroke-opacity="100" stroke-linejoin="miter" stroke-linecap="square" stroke-miterlimit="3"/><path d=" M 247.258 156.662 L 247.258 102.014 L 247.258 156.662 Z  M 247.258 168.372 L 243.152 162.517 L 239.047 156.662 L 247.258 156.662 L 255.469 156.662 L 251.363 162.517 L 247.258 168.372 Z " fill-rule="evenodd" fill="rgb(0,0,0)" vector-effect="non-scaling-stroke" stroke-width="3" stroke="rgb(0,0,0)" stroke-opacity="100" stroke-linejoin="miter" stroke-linecap="square" stroke-miterlimit="3"/><text transform="matrix(1.411,0,0,1.411,340.801,275.023)" style="font-family:'Open Sans';font-weight:400;font-size:14px;font-style:normal;font-variant-ligatures:none;fill:#000000;stroke:none;">onBind()</text><text transform="matrix(1.411,0,0,1.411,328.101,415.022)" style="font-family:'Open Sans';font-weight:400;font-size:14px;font-style:normal;font-variant-ligatures:none;fill:#000000;stroke:none;">onUnbind()</text><text transform="matrix(1.411,0,0,1.411,331.629,147.476)" style="font-family:'Open Sans';font-weight:400;font-size:14px;font-style:normal;font-variant-ligatures:none;fill:#000000;stroke:none;">onCreate()</text><text transform="matrix(1.411,0,0,1.411,325.984,568.472)" style="font-family:'Open Sans';font-weight:400;font-size:14px;font-style:normal;font-variant-ligatures:none;fill:#000000;stroke:none;">onDestroy()</text><rect x="157.847" y="172.372" width="178.821" height="59.999" transform="matrix(1,0,0,1,0,0)" fill="rgb(135,227,48)"/><clipPath id="_clipPath_GmjpnhjB4y9ZXHlrJmlUiDRccrvnx5eT"><rect x="157.847" y="172.372" width="178.821" height="59.999" transform="matrix(1,0,0,1,0,0)" fill="rgb(255,255,255)"/></clipPath><g clip-path="url(#_clipPath_GmjpnhjB4y9ZXHlrJmlUiDRccrvnx5eT)"><g><text transform="matrix(1.411,0,0,1.411,195.753,212.017)" style="font-family:'Roboto';font-weight:700;font-size:20px;font-style:normal;font-variant-ligatures:none;fill:#FFFFFF;stroke:none;">Created</text></g></g><ellipse vector-effect="non-scaling-stroke" cx="247.25761551993185" cy="51.00724722458214" rx="123.00000000000001" ry="51.00724722458209" fill="rgb(74,134,232)"/><clipPath id="_clipPath_4pcsWkMLnFxE2aERkzCBvwlO9couohcv"><ellipse vector-effect="non-scaling-stroke" cx="247.25761551993185" cy="51.00724722458214" rx="123.00000000000001" ry="51.00724722458209" fill="rgb(255,255,255)"/></clipPath><g clip-path="url(#_clipPath_4pcsWkMLnFxE2aERkzCBvwlO9couohcv)"><g><text transform="matrix(1,0,0,1,144.758,58.766)" style="font-family:'Open Sans';font-weight:700;font-size:20px;font-style:normal;font-variant-ligatures:none;fill:#FFFFFF;stroke:none;">Call to bindService()</text></g></g></g></g></g></g></svg>