<?xml version="1.0" encoding="UTF-8" standalone="no"?><!-- Generator: Gravit.io --><svg xmlns="http://www.w3.org/2000/svg" xmlns:xlink="http://www.w3.org/1999/xlink" style="isolation:isolate" viewBox="0 0 538.583 479.994" width="538.583pt" height="479.994pt"><defs><clipPath id="_clipPath_1Gh5gHx8nwBFjUXBth1otZmPX7yxHstA"><rect width="538.583" height="479.994"/></clipPath></defs><g clip-path="url(#_clipPath_1Gh5gHx8nwBFjUXBth1otZmPX7yxHstA)"><g style="isolation:isolate"><rect x="79.999" y="279.997" width="379.996" height="59.999" transform="matrix(1,0,0,1,0,0)" fill="rgb(206,114,44)"/><clipPath id="_clipPath_nRX1Jgk0yzB1CYTxgMYhaJy7xjkDPrh9"><rect x="79.999" y="279.997" width="379.996" height="59.999" transform="matrix(1,0,0,1,0,0)" fill="rgb(206,114,44)"/></clipPath><g clip-path="url(#_clipPath_nRX1Jgk0yzB1CYTxgMYhaJy7xjkDPrh9)"><text transform="matrix(1.411,0,0,1.411,218.492,319.643)" style="font-family:'Roboto';font-weight:700;font-size:20px;font-style:normal;fill:#ffffff;stroke:none;">Created</text></g><rect x="79.999" y="139.998" width="379.996" height="59.999" transform="matrix(1,0,0,1,0,0)" fill="rgb(240,169,37)"/><clipPath id="_clipPath_H0DBYVLvMUvC0sdRNWakDGJn9pO0w4J9"><rect x="79.999" y="139.998" width="379.996" height="59.999" transform="matrix(1,0,0,1,0,0)" fill="rgb(240,169,37)"/></clipPath><g clip-path="url(#_clipPath_H0DBYVLvMUvC0sdRNWakDGJn9pO0w4J9)"><text transform="matrix(1.411,0,0,1.411,221.314,179.644)" style="font-family:'Roboto';font-weight:700;font-size:20px;font-style:normal;fill:#ffffff;stroke:none;">Started</text></g><rect x="79.999" y="419.995" width="178.821" height="59.999" transform="matrix(1,0,0,1,0,0)" fill="rgb(234,38,38)"/><clipPath id="_clipPath_7tHsa7mCHvQCmNYJ8WA2rLsI3znYURgj"><rect x="79.999" y="419.995" width="178.821" height="59.999" transform="matrix(1,0,0,1,0,0)" fill="rgb(234,38,38)"/></clipPath><g clip-path="url(#_clipPath_7tHsa7mCHvQCmNYJ8WA2rLsI3znYURgj)"><text transform="matrix(1.411,0,0,1.411,105.911,459.641)" style="font-family:'Roboto';font-weight:700;font-size:20px;font-style:normal;fill:#ffffff;stroke:none;">Initialized</text></g><rect x="281.173" y="419.995" width="178.821" height="59.999" transform="matrix(1,0,0,1,0,0)" fill="rgb(219,56,143)"/><clipPath id="_clipPath_rnIYS0FyRAb9o2EX2xPz9ROcbuYuZjYa"><rect x="281.173" y="419.995" width="178.821" height="59.999" transform="matrix(1,0,0,1,0,0)" fill="rgb(219,56,143)"/></clipPath><g clip-path="url(#_clipPath_rnIYS0FyRAb9o2EX2xPz9ROcbuYuZjYa)"><text transform="matrix(1.411,0,0,1.411,304.968,457.899)" style="font-family:'Roboto';font-weight:700;font-size:20px;font-style:normal;fill:#ffffff;stroke:none;">Destroyed</text></g><path d=" M 168.209 77.385 L 168.209 139.998 L 168.209 77.385 Z  M 168.209 63.968 L 172.315 70.677 L 176.42 77.385 L 168.209 77.385 L 159.998 77.385 L 164.104 70.677 L 168.209 63.968 Z " fill-rule="evenodd" fill="rgb(0,0,0)" vector-effect="non-scaling-stroke" stroke-width="3" stroke="rgb(0,0,0)" stroke-linejoin="miter" stroke-linecap="square" stroke-miterlimit="3"/><path d=" M 370.584 402.609 L 370.584 339.996 L 370.584 402.609 Z  M 370.584 416.026 L 366.478 409.318 L 362.373 402.609 L 370.584 402.609 L 378.795 402.609 L 374.689 409.318 L 370.584 416.026 Z " fill-rule="evenodd" fill="rgb(0,0,0)" vector-effect="non-scaling-stroke" stroke-width="3" stroke="rgb(0,0,0)" stroke-linejoin="miter" stroke-linecap="square" stroke-miterlimit="3"/><path d=" M 168.209 217.384 L 168.209 279.997 L 168.209 217.384 Z  M 168.209 203.966 L 172.315 210.675 L 176.42 217.384 L 168.209 217.384 L 159.998 217.384 L 164.104 210.675 L 168.209 203.966 Z " fill-rule="evenodd" fill="rgb(0,0,0)" vector-effect="non-scaling-stroke" stroke-width="3" stroke="rgb(0,0,0)" stroke-linejoin="miter" stroke-linecap="square" stroke-miterlimit="3"/><path d=" M 370.584 262.611 L 370.584 199.998 L 370.584 262.611 Z  M 370.584 276.028 L 366.478 269.32 L 362.373 262.611 L 370.584 262.611 L 378.795 262.611 L 374.689 269.32 L 370.584 276.028 Z " fill-rule="evenodd" fill="rgb(0,0,0)" vector-effect="non-scaling-stroke" stroke-width="3" stroke="rgb(0,0,0)" stroke-linejoin="miter" stroke-linecap="square" stroke-miterlimit="3"/><path d=" M 168.209 357.382 L 168.209 419.995 L 168.209 357.382 Z  M 168.209 343.965 L 172.315 350.673 L 176.42 357.382 L 168.209 357.382 L 159.998 357.382 L 164.104 350.673 L 168.209 343.965 Z " fill-rule="evenodd" fill="rgb(0,0,0)" vector-effect="non-scaling-stroke" stroke-width="3" stroke="rgb(0,0,0)" stroke-linejoin="miter" stroke-linecap="square" stroke-miterlimit="3"/><path d=" M 370.584 122.613 L 370.584 59.999 L 370.584 122.613 Z  M 370.584 136.03 L 366.478 129.321 L 362.373 122.613 L 370.584 122.613 L 378.795 122.613 L 374.689 129.321 L 370.584 136.03 Z " fill-rule="evenodd" fill="rgb(0,0,0)" vector-effect="non-scaling-stroke" stroke-width="3" stroke="rgb(0,0,0)" stroke-linejoin="miter" stroke-linecap="square" stroke-miterlimit="3"/><text transform="matrix(1.411,0,0,1.411,0,109.647)" style="font-family:'Open Sans';font-weight:400;font-size:14px;font-style:normal;fill:#000000;stroke:none;">onResume()</text><text transform="matrix(1.411,0,0,1.411,427.106,109.647)" style="font-family:'Open Sans';font-weight:400;font-size:14px;font-style:normal;fill:#000000;stroke:none;">onPause()</text><text transform="matrix(1.411,0,0,1.411,0,249.645)" style="font-family:'Open Sans';font-weight:400;font-size:14px;font-style:normal;fill:#000000;stroke:none;">onStart()</text><text transform="matrix(1.411,0,0,1.411,427.106,249.645)" style="font-family:'Open Sans';font-weight:400;font-size:14px;font-style:normal;fill:#000000;stroke:none;">onStop()</text><text transform="matrix(1.411,0,0,1.411,0,389.644)" style="font-family:'Open Sans';font-weight:400;font-size:14px;font-style:normal;fill:#000000;stroke:none;">onCreate()</text><text transform="matrix(1.411,0,0,1.411,427.106,389.644)" style="font-family:'Open Sans';font-weight:400;font-size:14px;font-style:normal;fill:#000000;stroke:none;">onDestroy()</text><rect x="79.999" y="0" width="379.996" height="59.999" transform="matrix(1,0,0,1,0,0)" fill="rgb(135,227,48)"/><clipPath id="_clipPath_khKjjePZ1Xl7Q86tJshCyBSEopNbDlIa"><rect x="79.999" y="0" width="379.996" height="59.999" transform="matrix(1,0,0,1,0,0)" fill="rgb(135,227,48)"/></clipPath><g clip-path="url(#_clipPath_khKjjePZ1Xl7Q86tJshCyBSEopNbDlIa)"><text transform="matrix(1.411,0,0,1.411,208.614,39.646)" style="font-family:'Roboto';font-weight:700;font-size:20px;font-style:normal;fill:#ffffff;stroke:none;">Resumed</text></g></g></g></svg>