<?xml version="1.0" encoding="UTF-8" standalone="no"?><!-- Generator: Gravit.io --><svg xmlns="http://www.w3.org/2000/svg" xmlns:xlink="http://www.w3.org/1999/xlink" style="isolation:isolate" viewBox="0 0 512.602 652.366" width="512.602pt" height="652.366pt"><defs><clipPath id="_clipPath_Iz7Pl2CNovaru4OE8I3qmCLNtRRybqbJ"><rect width="512.602" height="652.366"/></clipPath></defs><g clip-path="url(#_clipPath_Iz7Pl2CNovaru4OE8I3qmCLNtRRybqbJ)"><path d="M 29.321 243.747 L 470.516 243.747 C 486.699 243.747 499.837 256.885 499.837 273.068 L 499.837 499.854 C 499.837 516.036 486.699 529.175 470.516 529.175 L 29.321 529.175 C 13.138 529.175 0 516.036 0 499.854 L 0 273.068 C 0 256.885 13.138 243.747 29.321 243.747 Z" style="stroke:none;fill:#B1EC7A;stroke-miterlimit:10;"/><text transform="matrix(1,0,0,1,18.833,278.776)" style="font-family:'Roboto';font-weight:700;font-size:21px;font-style:normal;fill:#ffffff;stroke:none;">Aktive Lebenszeit</text><g style="isolation:isolate"><rect x="157.847" y="452.368" width="178.821" height="59.999" transform="matrix(1,0,0,1,0,0)" fill="rgb(240,86,59)"/><clipPath id="_clipPath_THylkmgMT11Q0hlrcDg3yAVUTdC3UXOH"><rect x="157.847" y="452.368" width="178.821" height="59.999" transform="matrix(1,0,0,1,0,0)" fill="rgb(240,86,59)"/></clipPath><g clip-path="url(#_clipPath_THylkmgMT11Q0hlrcDg3yAVUTdC3UXOH)"><text transform="matrix(1.411,0,0,1.411,192.93,492.014)" style="font-family:'Roboto';font-weight:700;font-size:20px;font-style:normal;fill:#ffffff;stroke:none;">Stopped</text></g><rect x="157.847" y="312.37" width="178.821" height="59.999" transform="matrix(1,0,0,1,0,0)" fill="rgb(255,151,47)"/><clipPath id="_clipPath_hkiZBflphQbm72EsWfWkzJTypAbXTHHO"><rect x="157.847" y="312.37" width="178.821" height="59.999" transform="matrix(1,0,0,1,0,0)" fill="rgb(255,151,47)"/></clipPath><g clip-path="url(#_clipPath_hkiZBflphQbm72EsWfWkzJTypAbXTHHO)"><text transform="matrix(1.411,0,0,1.411,192.93,352.016)" style="font-family:'Roboto';font-weight:700;font-size:20px;font-style:normal;fill:#ffffff;stroke:none;">Running</text></g><rect x="157.847" y="592.367" width="178.821" height="59.999" transform="matrix(1,0,0,1,0,0)" fill="rgb(219,56,143)"/><clipPath id="_clipPath_UDQxTje6oI6iGoIRbNjhiR7kZsw1sfrj"><rect x="157.847" y="592.367" width="178.821" height="59.999" transform="matrix(1,0,0,1,0,0)" fill="rgb(219,56,143)"/></clipPath><g clip-path="url(#_clipPath_UDQxTje6oI6iGoIRbNjhiR7kZsw1sfrj)"><text transform="matrix(1.411,0,0,1.411,178.82,630.27)" style="font-family:'Roboto';font-weight:700;font-size:20px;font-style:normal;fill:#ffffff;stroke:none;">Shut down</text></g><path d=" M 247.258 575.95 L 247.258 513.336 L 247.258 575.95 Z  M 247.258 589.367 L 243.152 582.658 L 239.047 575.95 L 247.258 575.95 L 255.469 575.95 L 251.363 582.658 L 247.258 589.367 Z " fill-rule="evenodd" fill="rgb(0,0,0)" vector-effect="non-scaling-stroke" stroke-width="3" stroke="rgb(0,0,0)" stroke-linejoin="miter" stroke-linecap="square" stroke-miterlimit="3"/><path d=" M 247.258 435.951 L 247.258 373.338 L 247.258 435.951 Z  M 247.258 449.368 L 243.152 442.66 L 239.047 435.951 L 247.258 435.951 L 255.469 435.951 L 251.363 442.66 L 247.258 449.368 Z " fill-rule="evenodd" fill="rgb(0,0,0)" vector-effect="non-scaling-stroke" stroke-width="3" stroke="rgb(0,0,0)" stroke-linejoin="miter" stroke-linecap="square" stroke-miterlimit="3"/><path d=" M 247.258 295.953 L 247.258 233.34 L 247.258 295.953 Z  M 247.258 309.37 L 243.152 302.661 L 239.047 295.953 L 247.258 295.953 L 255.469 295.953 L 251.363 302.661 L 247.258 309.37 Z " fill-rule="evenodd" fill="rgb(0,0,0)" vector-effect="non-scaling-stroke" stroke-width="3" stroke="rgb(0,0,0)" stroke-linejoin="miter" stroke-linecap="square" stroke-miterlimit="3"/><path d=" M 247.258 156.662 L 247.258 102.014 L 247.258 156.662 Z  M 247.258 168.372 L 243.152 162.517 L 239.047 156.662 L 247.258 156.662 L 255.469 156.662 L 251.363 162.517 L 247.258 168.372 Z " fill-rule="evenodd" fill="rgb(0,0,0)" vector-effect="non-scaling-stroke" stroke-width="3" stroke="rgb(0,0,0)" stroke-linejoin="miter" stroke-linecap="square" stroke-miterlimit="3"/><text transform="matrix(1.411,0,0,1.411,311.811,276.221)" style="font-family:'Open Sans';font-weight:400;font-size:14px;font-style:normal;fill:#000000;stroke:none;">onStartCommand()</text><text transform="matrix(1.411,0,0,1.411,340.738,405.566)" style="font-family:'Open Sans';font-weight:400;font-size:14px;font-style:normal;fill:#000000;stroke:none;">stopSelf()</text><text transform="matrix(1.411,0,0,1.411,340.738,432.469)" style="font-family:'Open Sans';font-weight:400;font-size:14px;font-style:normal;fill:#000000;stroke:none;">stopService()</text><text transform="matrix(1.411,0,0,1.411,351.322,148.674)" style="font-family:'Open Sans';font-weight:400;font-size:14px;font-style:normal;fill:#000000;stroke:none;">onCreate()</text><text transform="matrix(1.411,0,0,1.411,345.677,569.67)" style="font-family:'Open Sans';font-weight:400;font-size:14px;font-style:normal;fill:#000000;stroke:none;">onDestroy()</text><rect x="157.847" y="172.372" width="178.821" height="59.999" transform="matrix(1,0,0,1,0,0)" fill="rgb(135,227,48)"/><clipPath id="_clipPath_JCnWL9wZUlWcqW5dk09DuNPaIOrxDg4G"><rect x="157.847" y="172.372" width="178.821" height="59.999" transform="matrix(1,0,0,1,0,0)" fill="rgb(135,227,48)"/></clipPath><g clip-path="url(#_clipPath_JCnWL9wZUlWcqW5dk09DuNPaIOrxDg4G)"><text transform="matrix(1.411,0,0,1.411,195.753,212.017)" style="font-family:'Roboto';font-weight:700;font-size:20px;font-style:normal;fill:#ffffff;stroke:none;">Created</text></g><ellipse vector-effect="non-scaling-stroke" cx="247.25761551993185" cy="51.007247224582095" rx="123.00000000000001" ry="51.0072472245821" fill="rgb(74,134,232)"/><clipPath id="_clipPath_3AZQxz1CArHb8GhRinGgnYT0CZ0BNhFX"><ellipse vector-effect="non-scaling-stroke" cx="247.25761551993185" cy="51.007247224582095" rx="123.00000000000001" ry="51.0072472245821" fill="rgb(74,134,232)"/></clipPath><g clip-path="url(#_clipPath_3AZQxz1CArHb8GhRinGgnYT0CZ0BNhFX)"><text transform="matrix(1,0,0,1,144.758,58.766)" style="font-family:'Open Sans';font-weight:700;font-size:20px;font-style:normal;fill:#ffffff;stroke:none;">Call to startService()</text></g></g></g></svg>